# 3ds Max Wavefront OBJ Exporter v0.97b - (c)2007 guruware
# File Created: 19.11.2021 13:09:05

mtllib Floor.mtl

#
# object Box001
#

v  -250.0000 0.0000 250.0000
v  -250.0000 0.0000 -250.0000
v  250.0000 0.0000 -250.0000
v  250.0000 0.0000 250.0000
v  -250.0000 2.0000 250.0000
v  250.0000 2.0000 250.0000
v  250.0000 2.0000 -250.0000
v  -250.0000 2.0000 -250.0000
# 8 vertices

vn -0.5774 -0.5774 0.5774
vn -0.5774 -0.5774 -0.5774
vn 0.5774 -0.5774 -0.5774
vn 0.5774 -0.5774 0.5774
vn -0.5774 0.5774 0.5774
vn 0.5774 0.5774 0.5774
vn 0.5774 0.5774 -0.5774
vn -0.5774 0.5774 -0.5774
# 8 vertex normals

vt 0.0005 0.9963 0.0000
vt 0.0005 0.5008 0.0000
vt 0.4961 0.5008 0.0000
vt 0.4961 0.9963 0.0000
vt 0.0111 0.0040 0.0000
vt 0.5066 0.0040 0.0000
vt 0.5066 0.4996 0.0000
vt 0.0111 0.4996 0.0000
vt 0.0025 0.0040 0.0000
vt 0.0025 0.4996 0.0000
vt 0.0005 0.4996 0.0000
vt 0.0005 0.0040 0.0000
vt 0.0005 0.9975 0.0000
vt 0.4961 0.9975 0.0000
vt 0.4961 0.9995 0.0000
vt 0.0005 0.9995 0.0000
vt 0.5008 0.0005 0.0000
vt 0.9963 0.0005 0.0000
vt 0.9963 0.0025 0.0000
vt 0.5008 0.0025 0.0000
vt 0.0040 0.0005 0.0000
vt 0.4996 0.0005 0.0000
vt 0.4996 0.0025 0.0000
vt 0.0040 0.0025 0.0000
# 24 texture coords

o Box001
g Box001
usemtl 01___Default
s 2
f 1/1/1 2/2/2 3/3/3 4/4/4 
s 4
f 5/5/5 6/6/6 7/7/7 8/8/8 
s 8
f 1/9/1 4/10/4 6/11/6 5/12/5 
s 16
f 4/13/4 3/14/3 7/15/7 6/16/6 
s 32
f 3/17/3 2/18/2 8/19/8 7/20/7 
s 64
f 2/21/2 1/22/1 5/23/5 8/24/8 
# 6 polygons

